<svg id="b465a16a-1202-4755-ab2a-5eeee67c4d89" xmlns="http://www.w3.org/2000/svg" viewBox="0 0 902 702.01"><defs><style>.cls-1{fill:#3f3d56;}.cls-2{fill:#d0cde1;}.cls-3{fill:#2f2e41;}.cls-4{fill:#a0616a;}.cls-5{opacity:0.15;}.cls-5,.cls-6{isolation:isolate;}.cls-6{opacity:0.1;}.cls-7{fill:#a5d6e4;}.cls-8{fill:#f7931a;}.cls-9{fill:#fff;}</style></defs><title>kortbetalning</title><path class="cls-1" d="M794.71,652.86c-.06-.29-6.42-29.28,6.56-53.35s40.7-34.7,41-34.8l1.26-.48.3,1.32c.07.29,6.43,29.28-6.56,53.36s-40.69,34.69-41,34.8l-1.27.47Zm47.07-85.41c-5.55,2.39-27.46,12.84-38.43,33.18S795.69,645,796.75,651c5.55-2.38,27.45-12.82,38.42-33.17s7.66-44.39,6.61-50.34Z" transform="translate(0 0)"/><path class="cls-2" d="M827.33,610.46C804,624.5,795,652.38,795,652.38s28.85,5.12,52.18-8.91,32.31-41.92,32.31-41.92S850.66,596.43,827.33,610.46Z" transform="translate(0 0)"/><path class="cls-1" d="M320.42,526c-2.78,0-5.58,0-8.33-.13l.06-2c4,.13,8,.16,12,.1l0,2C322.89,526,321.66,526,320.42,526Zm15.74-.46-.11-2c3.95-.23,8-.56,11.91-1l.2,2C344.19,525,340.15,525.3,336.16,525.54Zm-36.09-.32c-4-.3-8-.7-12-1.19l.24-2c3.93.48,7.93.88,11.89,1.18Zm60-2.19-.3-2c3.93-.6,7.89-1.29,11.77-2.06l.39,2C368.06,521.73,364.07,522.42,360.11,523Zm-83.94-.74c-3.94-.66-7.92-1.43-11.82-2.28l.42-2c3.88.84,7.82,1.6,11.74,2.26Zm107.55-4-.48-1.94c3.86-.95,7.74-2,11.53-3.13l.57,1.91C391.52,516.31,387.61,517.37,383.72,518.33Zm-131.08-1.14c-3.86-1-7.75-2.16-11.56-3.37l.6-1.9c3.78,1.19,7.64,2.31,11.48,3.33Zm154.16-5.71-.65-1.88c3.74-1.31,7.51-2.71,11.19-4.19l.74,1.86C414.37,508.75,410.58,510.17,406.8,511.48Zm-177.14-1.56c-3.76-1.38-7.54-2.87-11.23-4.43l.78-1.84c3.66,1.54,7.41,3,11.14,4.39Zm199.47-7.37-.83-1.82c3.6-1.63,7.21-3.38,10.75-5.18l.91,1.78C436.4,499.15,432.75,500.9,429.13,502.55Zm21.4-10.94-1-1.73c3.45-2,6.89-4,10.23-6.15l1.07,1.69C457.47,487.54,454,489.63,450.53,491.61Zm20.32-12.86-1.14-1.63c3.25-2.27,6.49-4.65,9.63-7.07l1.22,1.59C477.39,474.08,474.13,476.47,470.85,478.75ZM166,475.94c-3.23-2.35-6.46-4.8-9.59-7.3l1.25-1.57c3.11,2.48,6.31,4.92,9.51,7.25Zm323.9-11.85-1.29-1.53c3-2.55,6-5.21,8.95-7.91l1.36,1.47C496,458.84,493,461.52,489.93,464.09ZM147.2,460.91c-3-2.64-6-5.37-8.88-8.14l1.39-1.45c2.86,2.75,5.83,5.47,8.81,8.08Zm360.4-13.16-1.42-1.41c2.79-2.83,5.55-5.75,8.2-8.69l1.49,1.33c-2.68,3-5.46,5.92-8.27,8.77Zm-377.77-3.52c-2.76-2.9-5.48-5.9-8.1-8.91l1.51-1.31c2.6,3,5.3,6,8,8.84Zm393.89-14.38-1.54-1.27c2.52-3.06,5-6.23,7.38-9.41l1.6,1.2C528.76,423.57,526.26,426.76,523.72,429.85Zm-409.67-3.79c-2.47-3.13-4.91-6.36-7.25-9.61l1.63-1.17c2.31,3.22,4.73,6.43,7.19,9.54Zm424.1-15.5-1.65-1.12c2.23-3.29,4.41-6.67,6.49-10.05l1.7,1.05C542.6,403.84,540.4,407.25,538.15,410.56Zm-438.15-4c-2.18-3.34-4.31-6.78-6.34-10.22l1.72-1c2,3.42,4.13,6.83,6.3,10.15ZM550.77,390l-1.75-1c1.92-3.47,3.78-7,5.54-10.6l1.8.88c-1.78,3.59-3.66,7.19-5.59,10.69Zm10.68-21.62-1.83-.8c1.59-3.64,3.12-7.37,4.54-11.08l1.87.71c-1.43,3.74-3,7.5-4.58,11.17Zm-483.9-4.32c-1.54-3.68-3-7.44-4.37-11.19l1.88-.68c1.35,3.72,2.81,7.45,4.33,11.1ZM570.1,345.87l-1.9-.63c1.25-3.76,2.42-7.61,3.5-11.43l1.92.54c-1.08,3.85-2.27,7.73-3.52,11.52ZM69.33,341.48c-1.19-3.81-2.31-7.7-3.32-11.57l1.93-.51c1,3.84,2.12,7.71,3.3,11.49Zm507.28-18.79-1.94-.45c.89-3.86,1.71-7.79,2.43-11.7l2,.36C578.34,314.84,577.52,318.8,576.61,322.69ZM63.22,318.2c-.83-3.91-1.59-7.89-2.24-11.83l2-.33c.65,3.91,1.4,7.86,2.23,11.74ZM581,299l-2-.27c.54-3.92,1-7.91,1.35-11.87l2,.18C582,291,581.51,295.06,581,299ZM59.28,294.45c-.47-4-.86-8-1.15-12l2-.15c.29,4,.68,8,1.15,11.9ZM583.15,275l-2-.09c.18-4,.27-8,.27-11.95h2C583.42,267,583.33,271,583.15,275ZM57.52,270.43c-.07-2.45-.1-4.95-.1-7.43,0-1.54,0-3.08,0-4.61l2,0c0,1.52,0,3,0,4.57,0,2.46,0,4.95.1,7.38Zm2.41-23.94-2-.13c.25-4,.59-8,1-12l2,.21c-.43,3.94-.77,7.94-1,11.91Zm520.2-12.2c-.4-3.95-1-5.87-1.53-9.8l2-.29c.58,4,1.08,7,1.48,11ZM62.51,222.73l-2-.3c.61-4,1.32-8,2.11-11.86l2,.4c-.78,3.88-1.49,7.84-2.09,11.76Zm514.07-10c-.76-3.9-1.62-7.83-2.56-11.67l1.94-.48c.95,3.88,1.81,7.83,2.58,11.76ZM67.24,199.32l-1.94-.49c1-3.87,2-7.78,3.2-11.61l1.91.58C69.27,191.6,68.21,195.47,67.24,199.32Zm503.69-9.82c-1.12-3.8-2.34-7.64-3.63-11.38l1.9-.65c1.29,3.77,2.52,7.63,3.65,11.47ZM74.13,176.4l-1.89-.66c1.33-3.78,2.76-7.58,4.27-11.29l1.85.75C76.87,168.88,75.45,172.65,74.13,176.4Zm489-9.49c-1.46-3.68-3-7.38-4.64-11l1.82-.82c1.64,3.63,3.21,7.35,4.68,11.06ZM83.1,154.21l-1.81-.84c1.67-3.64,3.44-7.28,5.28-10.84l1.78.92C86.53,147,84.76,150.6,83.1,154.21Zm470.27-9c-1.79-3.53-3.68-7.07-5.63-10.51l1.74-1c2,3.47,3.87,7,5.68,10.6ZM94.08,132.94l-1.73-1c2-3.46,4.1-6.93,6.25-10.3l1.69,1.07C98.15,126.06,96.06,129.5,94.08,132.94Zm447.54-8.53c-2.11-3.37-4.32-6.72-6.57-10l1.64-1.14c2.27,3.28,4.5,6.65,6.63,10ZM107,112.78l-1.63-1.15c2.3-3.27,4.72-6.53,7.17-9.69l1.58,1.23C111.63,106.3,109.24,109.54,107,112.78Zm421.07-8c-2.41-3.16-4.92-6.29-7.46-9.33l1.53-1.28c2.56,3,5.09,6.22,7.52,9.4ZM121.61,93.89l-1.53-1.3c2.59-3,5.29-6.06,8-9L129.56,85C126.85,87.87,124.18,90.87,121.61,93.89Zm391.07-7.41c-2.69-2.92-5.48-5.82-8.29-8.61l1.41-1.42c2.84,2.81,5.64,5.73,8.35,8.68ZM137.91,76.42,136.51,75c2.86-2.8,5.82-5.56,8.8-8.22l1.33,1.49c-2.95,2.64-5.89,5.38-8.73,8.16Zm357.82-6.78c-2.94-2.67-6-5.31-9-7.83L488,60.27c3.07,2.54,6.14,5.2,9.1,7.89Zm-340-9.13L154.47,59c3.09-2.52,6.29-5,9.5-7.39l1.19,1.61c-3.19,2.36-6.36,4.83-9.43,7.33Zm19.18-14.22-1.11-1.66c3.31-2.23,6.71-4.41,10.13-6.48l1,1.71c-3.39,2.06-6.77,4.22-10.06,6.43Zm20.39-12.4-1-1.76c3.5-1.91,7.09-3.77,10.67-5.52l.88,1.79C202.34,30.14,198.78,32,195.3,33.89Zm241.37-4.64c-3.56-1.77-7.2-3.48-10.83-5.09l.8-1.83c3.66,1.62,7.34,3.35,10.92,5.13ZM216.72,23.41l-.79-1.83c3.66-1.59,7.4-3.11,11.12-4.53l.71,1.87C224.07,20.33,220.35,21.84,216.72,23.41Zm198-3.83c-3.7-1.44-7.49-2.81-11.26-4.08l.63-1.89c3.81,1.27,7.62,2.65,11.36,4.1ZM239,14.94l-.62-1.9c3.8-1.25,7.68-2.42,11.52-3.49l.54,1.93C246.65,12.54,242.8,13.7,239,14.94Zm153.06-3c-3.81-1.09-7.7-2.1-11.56-3L381,7c3.89.92,7.81,1.94,11.65,3Zm-130-3.42-.44-2c3.89-.89,7.86-1.7,11.79-2.41l.36,2C269.86,6.86,265.92,7.67,262.05,8.55ZM368.84,6.48C365,5.75,361,5.1,357.05,4.55l.28-2c4,.56,7.95,1.21,11.88,1.95ZM285.56,4.31l-.26-2c4-.52,8-1,12-1.31l.17,2C293.49,3.34,289.49,3.78,285.56,4.31Zm59.62-1.15c-3.94-.37-7.95-.66-11.92-.85l.1-2c4,.2,8,.48,12,.86Zm-35.81-.93-.09-2C313,.08,316.7,0,320.42,0h.9V2h-.9C316.73,2,313,2.08,309.37,2.23Z" transform="translate(0 0)"/><rect class="cls-1" x="169" y="652.29" width="733" height="2"/><path class="cls-3" d="M598,316l10,155s24,61,23,119c0,0-9,23-2,27s11,7,7,10-7,10-4,12,4,5,3,5H605s6-15-3-19-4-14-4-14L531,415,478,595s9,6,2,9-10-3-7,3-1,9-1,10-30-3-30-3,15-13,8-16-10-6-8-8,10-21,10-21,4-72,5-75,0-17,0-24-1-35,2-42,6-93,22-103S598,316,598,316Z" transform="translate(0 0)"/><path class="cls-3" d="M471,612s20,41,6,46-32,1-36,7-48,13-49-2,48-43,48-43l6.38-10.28Z" transform="translate(0 0)"/><path class="cls-3" d="M633,642s20,41,6,46-32,1-36,7-48,13-49-2,48-43,48-43l6.38-10.28Z" transform="translate(0 0)"/><circle class="cls-4" cx="540.51" cy="94.53" r="33"/><polygon class="cls-4" points="563.01 112.03 559.01 141.03 529.01 164.03 521.01 153.03 521.01 115.03 563.01 112.03"/><path class="cls-1" d="M516,149s31,3,47-8l32,189s-113,9-118,3V274l20-96Z" transform="translate(0 0)"/><path class="cls-2" d="M560.26,132,571,141s44,7,41,19L600,302l4,48s-34-9-60,0-5.34-193.41-5.34-193.41S562.5,135,560.26,132Z" transform="translate(0 0)"/><path class="cls-2" d="M521,142.93S489,166,485,181s-17,173-17,173,6-3,9,2S526,150.84,521,142.93Z" transform="translate(0 0)"/><path class="cls-3" d="M507.53,93.09S504,87.73,505.33,82a33.89,33.89,0,0,0,1-10s2.89-9.35,5.77-14.57,1.51-7.42,10.58-9.07,5.36-13.46,29.27-.68a7,7,0,0,0,7.28,2.75c4.95-1,6.73,5.9,6.73,5.9s3.3-1.92,4.54.83,10-1.65,10,16.9-10,35.12-10,35.12.73-31.21-15.62-34.37-33.94-12.36-38.2-.55A90,90,0,0,1,507.53,93.09Z" transform="translate(0 0)"/><ellipse class="cls-4" cx="570.84" cy="96.21" rx="3.23" ry="4.3"/><path class="cls-2" d="M435.3,405.45c-7.91-4.76-17.45-4.4-21.08-4,1.38,3.37,5.53,12,13.44,16.73s17.46,4.4,21.08,4C447.36,418.82,443.21,410.21,435.3,405.45Z" transform="translate(0 0)"/><path class="cls-2" d="M472.48,499.87H423a11.13,11.13,0,0,0,0,22.26h49.45a11.13,11.13,0,0,0,0-22.26Z" transform="translate(0 0)"/><path class="cls-2" d="M696.44,382.42H419.15A24.56,24.56,0,0,0,394.59,407h0v135.1a24.57,24.57,0,0,0,24.56,24.56H696.44A24.57,24.57,0,0,0,721,542.08h0V407a24.56,24.56,0,0,0-24.56-24.56ZM412.29,399.17c.55-.1,13.53-2.31,24.29,4.16s14.88,19,15.05,19.51l.43,1.35-1.39.24a36.8,36.8,0,0,1-6,.44c-4.88,0-12-.8-18.27-4.6-10.75-6.47-14.88-19-15.05-19.5l-.43-1.35ZM472.48,524.6H423a13.6,13.6,0,0,1,0-27.2h49.45a13.6,13.6,0,0,1,0,27.2Zm225-2.47A14.89,14.89,0,0,1,682.67,537H645.58a14.9,14.9,0,0,1-14.84-14.84V499.87A14.88,14.88,0,0,1,645.58,485h37.09a14.88,14.88,0,0,1,14.84,14.83Z" transform="translate(0 0)"/><path class="cls-2" d="M657.33,517.8H641.25a4.33,4.33,0,0,0,0,8.66h16.08a4.33,4.33,0,0,0,0-8.66Zm0,6.18H641.25a1.86,1.86,0,1,1,0-3.71h16.09a1.87,1.87,0,0,1,1.86,1.85,1.85,1.85,0,0,1-1.85,1.86Z" transform="translate(0 0)"/><path class="cls-2" d="M687,517.8H670.93a4.33,4.33,0,0,0,0,8.66H687a4.33,4.33,0,0,0,0-8.66Zm0,6.18H670.93a1.86,1.86,0,1,1,0-3.71H687a1.86,1.86,0,0,1,0,3.71Z" transform="translate(0 0)"/><path class="cls-2" d="M657.33,506.67H641.25a4.33,4.33,0,0,0,0,8.66h16.08a4.33,4.33,0,0,0,0-8.66Zm0,6.19H641.25a1.86,1.86,0,0,1,0-3.71h16.08a1.86,1.86,0,0,1,0,3.71Z" transform="translate(0 0)"/><path class="cls-2" d="M687,506.67H670.93a4.33,4.33,0,0,0,0,8.66H687a4.33,4.33,0,1,0,0-8.66Zm0,6.19H670.93a1.86,1.86,0,1,1,0-3.71H687a1.86,1.86,0,0,1,0,3.71Z" transform="translate(0 0)"/><path class="cls-2" d="M657.33,495.55H641.25a4.33,4.33,0,1,0,0,8.65h16.08a4.33,4.33,0,0,0,0-8.65Zm0,6.18H641.25a1.86,1.86,0,0,1,0-3.71h16.08a1.86,1.86,0,0,1,0,3.71Z" transform="translate(0 0)"/><path class="cls-2" d="M687,495.55H670.93a4.33,4.33,0,1,0,0,8.65H687a4.33,4.33,0,0,0,0-8.65Zm0,6.18H670.93a1.86,1.86,0,1,1,0-3.71H687a1.86,1.86,0,0,1,0,3.71Z" transform="translate(0 0)"/><path class="cls-4" d="M609,352l-7.17,23.39S600,419,576,413s7-57,7-57l7-11Z" transform="translate(0 0)"/><path class="cls-4" d="M473,352l-7.17,23.39S464,419,440,413s7-57,7-57l7-11Z" transform="translate(0 0)"/><path class="cls-2" d="M604,153s16-4,21,23,11,104,11,104l-24,81s-24-13-29-11L601.9,279.7,586,208S600,153,604,153Z" transform="translate(0 0)"/><polygon class="cls-5" points="580.75 209.39 601.75 279.39 580.75 350.39 592.75 279.39 580.75 209.39"/><path class="cls-2" d="M485,208,449,350s19,6.26,26,11.26Z" transform="translate(0 0)"/><circle class="cls-1" cx="107.36" cy="464.88" r="100"/><circle class="cls-6" cx="107.36" cy="464.88" r="86"/><path class="cls-7" d="M103.24,515.63V503.12c-6.33-.13-12.87-2.36-16.69-5.46l2.62-8.3a26.68,26.68,0,0,0,15.71,5.33c7.74,0,13-5.08,13-12.15,0-6.81-4.25-11-12.33-14.75-11.13-5-18-10.65-18-21.44,0-10.28,6.44-18.09,16.48-20V413.88h6.76v12A26.5,26.5,0,0,1,125,430.24l-2.73,8.18a24.05,24.05,0,0,0-13.74-4.21c-8.4,0-11.57,5.7-11.57,10.66,0,6.44,4,9.66,13.53,14.13,11.24,5.2,16.91,11.65,16.91,22.67,0,9.8-6,19-17.24,21.07v12.89Z" transform="translate(0 0)"/><path class="cls-1" d="M213,668.29a722,722,0,0,1-213,0v-24a802,802,0,0,0,213,0Z" transform="translate(0 0)"/><path class="cls-1" d="M213,631.29a722,722,0,0,1-213,0v-24a802,802,0,0,0,213,0Z" transform="translate(0 0)"/><path class="cls-1" d="M213,594.29a722,722,0,0,1-213,0v-24a802,802,0,0,0,213,0Z" transform="translate(0 0)"/><path class="cls-8" d="M175.41,267a67,67,0,1,1-78.68-52.77A67,67,0,0,1,175.41,267Z" transform="translate(0 0)"/><path class="cls-9" d="M132.38,258.7c-2.58-8.63-10.77-10.09-20.53-9l-2.4-12.21L102,238.92l2.35,11.89c-2,.38-4,.81-5.93,1.25l-2.35-12-7.43,1.46,2.4,12.21c-1.6.35-3.18.69-4.72,1v0l-10.25,2,1.57,7.93s5.47-1.18,5.39-1.06A3.91,3.91,0,0,1,88,266l2.75,13.91a6.82,6.82,0,0,1,.79-.1l-.78.16,3.84,19.49a2.69,2.69,0,0,1-2.3,3h0c.11.07-5.41,1.06-5.41,1.06l.28,9.17,9.67-1.9c1.8-.36,3.58-.68,5.32-1l2.44,12.35L112,320.7l-2.4-12.22q3.06-.54,5.94-1.11l2.4,12.16,7.43-1.46-2.43-12.33c12.36-3.18,20.49-8.06,19.26-20-1-9.62-6.26-13-13.69-13.27C132.35,269.42,134.28,265,132.38,258.7Zm-5.2,28.46c1.83,9.23-14.19,11.3-19.22,12.3l-3.23-16.37c5-1,20.56-5.55,22.45,4.07Zm-8-22.4c1.66,8.39-11.72,10-15.91,10.84l-2.93-14.84C104.53,259.93,117.45,256,119.17,264.76Z" transform="translate(0 0)"/></svg>